<svg width="60" height="61" viewBox="0 0 60 61" fill="none" xmlns="http://www.w3.org/2000/svg">
<rect y="0.579956" width="60" height="60.08" rx="8" fill="#F3F6FF"/>
<g clip-path="url(#clip0_76_42)">
<g clip-path="url(#clip1_76_42)">
<g clip-path="url(#clip2_76_42)">
<mask id="mask0_76_42" style="mask-type:luminance" maskUnits="userSpaceOnUse" x="16" y="16" width="28" height="29">
<path d="M16 16.6499H44V44.6499H16V16.6499Z" fill="white"/>
</mask>
<g mask="url(#mask0_76_42)">
<path d="M38.148 30.7049C36.339 30.7049 34.867 32.1769 34.867 33.9859C34.867 35.7949 36.339 37.2669 38.148 37.2669H42.796L42.851 37.2639L42.905 37.2669C43.509 37.2669 43.999 36.7769 43.999 36.1729V27.5869C43.9989 26.8949 43.8344 26.2129 43.5193 25.597C43.2041 24.981 42.7471 24.4487 42.186 24.0439L38.466 17.9399C38.314 17.6909 38.069 17.5129 37.786 17.4449C37.503 17.3769 37.204 17.4259 36.956 17.5789L34.212 19.2809L32.974 17.1869C32.825 16.9349 32.582 16.7539 32.298 16.6819C32.014 16.6099 31.714 16.6559 31.464 16.8079L20.928 23.2129H19.281C18.687 23.2129 18.202 22.7369 18.188 22.1469C18.203 21.5559 18.687 21.0809 19.281 21.0809H21.304C21.908 21.0809 22.398 20.5909 22.398 19.9869C22.398 19.3829 21.908 18.8929 21.304 18.8929H19.281C17.734 18.8919 16.433 19.9689 16.089 21.4129C16.0302 21.5493 15.9999 21.6963 16 21.8449V22.1179V22.1729V40.2749C16.0013 41.4348 16.4627 42.5468 17.2829 43.367C18.1031 44.1872 19.2151 44.6485 20.375 44.6499H39.625C40.5433 44.6508 41.4386 44.3625 42.1837 43.8257C42.9289 43.289 43.486 42.5312 43.776 41.6599C43.967 41.0869 43.658 40.4669 43.085 40.2759C42.512 40.0849 41.893 40.3939 41.701 40.9669C41.403 41.8609 40.569 42.4619 39.625 42.4619H20.375C19.7952 42.4611 19.2394 42.2304 18.8294 41.8204C18.4195 41.4105 18.1888 40.8546 18.188 40.2749V25.2119C18.53 25.3329 18.898 25.3999 19.282 25.3999H39.626C40.206 25.4004 40.762 25.6309 41.1722 26.0409C41.5824 26.4509 41.8132 27.0069 41.814 27.5869V30.7039H38.15L38.148 30.7049ZM41.812 35.0799H38.148C37.545 35.0799 37.054 34.5889 37.054 33.9859C37.054 33.3829 37.545 32.8919 38.148 32.8919H41.812V35.0799ZM25.14 23.2129L31.654 19.2539L32.819 21.2249C32.8413 21.2796 32.8681 21.3325 32.899 21.3829C32.9228 21.4204 32.9489 21.4565 32.977 21.4909L33.994 23.2119H25.14V23.2129ZM36.535 23.2129L35.325 21.1659L37.172 20.0209L39.118 23.2139H36.534L36.535 23.2129Z" fill="url(#paint0_linear_76_42)"/>
</g>
</g>
</g>
</g>
<defs>
<linearGradient id="paint0_linear_76_42" x1="16" y1="30.7169" x2="44" y2="30.7169" gradientUnits="userSpaceOnUse">
<stop stop-color="#6366F1"/>
<stop offset="0.5" stop-color="#8B5CF6"/>
<stop offset="1" stop-color="#D946EF"/>
</linearGradient>
<clipPath id="clip0_76_42">
<rect width="28" height="28" fill="white" transform="translate(16 16.6499)"/>
</clipPath>
<clipPath id="clip1_76_42">
<rect width="28" height="28" fill="white" transform="translate(16 16.6499)"/>
</clipPath>
<clipPath id="clip2_76_42">
<rect width="28" height="28" fill="white" transform="translate(16 16.6499)"/>
</clipPath>
</defs>
</svg>
