<svg width="61" height="61" viewBox="0 0 61 61" fill="none" xmlns="http://www.w3.org/2000/svg">
<rect x="0.800049" y="0.780029" width="60" height="60.08" rx="8" fill="#F3F6FF"/>
<g clip-path="url(#clip0_20005128_14684)">
<g clip-path="url(#clip1_20005128_14684)">
<g clip-path="url(#clip2_20005128_14684)">
<mask id="mask0_20005128_14684" style="mask-type:luminance" maskUnits="userSpaceOnUse" x="16" y="16" width="29" height="29">
<path d="M16.8 16.85H44.8V44.85H16.8V16.85Z" fill="white"/>
</mask>
<g mask="url(#mask0_20005128_14684)">
<path d="M43.122 39.394C44.222 37.897 44.799 36.157 44.799 34.324C44.799 31.389 43.277 28.664 40.709 26.963C40.472 24.348 39.251 21.923 37.209 20.054C34.952 17.988 31.957 16.85 28.776 16.85C25.595 16.85 22.6 17.988 20.342 20.054C18.058 22.145 16.8 24.933 16.8 27.904C16.8 30.189 17.537 32.356 18.937 34.21L16.879 39.299C16.712 39.712 16.812 40.184 17.132 40.494C17.34 40.696 17.615 40.802 17.894 40.802C18.043 40.802 18.193 40.772 18.335 40.709L24.203 38.122C24.94 38.404 25.699 38.614 26.475 38.754C27.27 40.062 28.405 41.17 29.784 41.976C31.324 42.876 33.101 43.357 34.93 43.371L35.011 43.375C36.2561 43.3782 37.4917 43.1581 38.659 42.725L43.265 44.756C43.404 44.8174 43.5542 44.849 43.706 44.849C43.985 44.849 44.259 44.742 44.468 44.541C44.788 44.231 44.888 43.758 44.721 43.346L43.122 39.394ZM40.856 39.624L41.682 41.668L39.121 40.539C38.844 40.417 38.529 40.415 38.251 40.534C37.247 40.962 36.172 41.182 35.055 41.188L35.011 41.186C32.856 41.186 30.819 40.344 29.397 38.943C31.201 38.857 32.969 38.396 34.545 37.595C35.084 37.321 35.298 36.663 35.025 36.124C34.752 35.585 34.093 35.371 33.554 35.644C32.103 36.381 30.451 36.771 28.777 36.771C27.322 36.771 25.921 36.488 24.614 35.93C24.336 35.811 24.02 35.813 23.744 35.935L19.918 37.621L21.206 34.435C21.359 34.057 21.289 33.626 21.024 33.316C19.692 31.753 18.988 29.882 18.988 27.904C18.988 23.015 23.379 19.037 28.777 19.037C34.175 19.037 38.566 23.015 38.566 27.904C38.566 29.483 38.102 31.033 37.223 32.387C36.894 32.894 37.039 33.571 37.545 33.9C38.051 34.229 38.729 34.084 39.058 33.578C39.8297 32.3931 40.3539 31.0645 40.599 29.672C41.88 30.927 42.612 32.58 42.612 34.324C42.612 35.851 42.068 37.297 41.037 38.505C40.773 38.815 40.704 39.247 40.856 39.624ZM29.815 33.53C29.815 34.134 29.325 34.624 28.721 34.624C28.117 34.624 27.627 34.134 27.627 33.53C27.627 32.926 28.117 32.436 28.721 32.436C29.325 32.436 29.815 32.926 29.815 33.53ZM32.877 25.335C32.878 25.35 32.878 25.365 32.878 25.381C32.8787 26.1853 32.6428 26.972 32.1997 27.6432C31.7566 28.3145 31.1259 28.8405 30.386 29.156C30.073 29.29 29.87 29.605 29.87 29.96V30.031C29.87 30.635 29.38 31.125 28.776 31.125C28.172 31.125 27.682 30.635 27.682 30.031V29.961C27.6793 29.3623 27.8527 28.7761 28.1808 28.2754C28.5089 27.7746 28.9771 27.3815 29.527 27.145C30.224 26.847 30.678 26.17 30.69 25.414V25.382C30.69 24.327 29.832 23.468 28.776 23.468C27.72 23.468 26.862 24.326 26.862 25.382C26.862 25.986 26.372 26.476 25.768 26.476C25.164 26.476 24.674 25.986 24.674 25.382C24.674 23.121 26.514 21.281 28.775 21.281C31.021 21.281 32.851 23.096 32.876 25.336L32.877 25.335Z" fill="url(#paint0_linear_20005128_14684)"/>
</g>
</g>
</g>
</g>
<defs>
<linearGradient id="paint0_linear_20005128_14684" x1="16.8" y1="30.917" x2="44.8" y2="30.917" gradientUnits="userSpaceOnUse">
<stop stop-color="#6366F1"/>
<stop offset="0.5" stop-color="#8B5CF6"/>
<stop offset="1" stop-color="#D946EF"/>
</linearGradient>
<clipPath id="clip0_20005128_14684">
<rect width="28" height="28" fill="white" transform="translate(16.8 16.85)"/>
</clipPath>
<clipPath id="clip1_20005128_14684">
<rect width="28" height="28" fill="white" transform="translate(16.8 16.85)"/>
</clipPath>
<clipPath id="clip2_20005128_14684">
<rect width="28" height="28" fill="white" transform="translate(16.8 16.85)"/>
</clipPath>
</defs>
</svg>
