<svg width="61" height="62" viewBox="0 0 61 62" fill="none" xmlns="http://www.w3.org/2000/svg">
<rect x="0.800049" y="0.97998" width="60" height="60.08" rx="8" fill="#F3F6FF"/>
<g clip-path="url(#clip0_76_43)">
<g clip-path="url(#clip1_76_43)">
<g clip-path="url(#clip2_76_43)">
<mask id="mask0_76_43" style="mask-type:luminance" maskUnits="userSpaceOnUse" x="16" y="17" width="29" height="29">
<path d="M16.8 17.0499H44.8V45.0499H16.8V17.0499Z" fill="white"/>
</mask>
<g mask="url(#mask0_76_43)">
<path d="M30.745 45.0499C30.577 45.0499 30.41 45.0119 30.256 44.9349C30.128 44.8709 27.087 43.3289 23.904 39.8699C22.0517 37.8619 20.5161 35.5834 19.35 33.1129C17.906 30.0449 17.048 26.6859 16.802 23.1299C16.782 22.8399 16.878 22.5539 17.069 22.3349C17.26 22.1159 17.531 21.9819 17.821 21.9629C19.824 21.8309 21.393 20.1539 21.393 18.1439C21.394 17.5399 21.883 17.0499 22.487 17.0499H39.112C39.716 17.0499 40.206 17.5399 40.206 18.1439C40.206 20.1529 41.774 21.8299 43.776 21.9629C44.071 21.9819 44.345 22.1199 44.536 22.3449C44.727 22.5699 44.82 22.8629 44.792 23.1569C44.418 27.1059 43.328 30.7989 41.551 34.1339C41.267 34.6669 40.605 34.8689 40.072 34.5849C39.539 34.3009 39.337 33.6389 39.621 33.1049C41.109 30.3109 42.076 27.2389 42.502 23.9599C40.262 23.3699 38.542 21.5169 38.119 19.2359H23.481C23.056 21.5289 21.323 23.3869 19.07 23.9689C19.645 29.4869 21.79 34.3109 25.453 38.3219C27.646 40.7229 29.796 42.1389 30.739 42.6989C31.771 42.0709 34.266 40.3849 36.695 37.4599C37.081 36.9949 37.77 36.9319 38.235 37.3179C38.7 37.7039 38.764 38.3939 38.377 38.8579C34.92 43.0199 31.391 44.8539 31.242 44.9299C31.0879 45.0089 30.9182 45.0501 30.745 45.0499ZM31.591 39.1309C31.955 38.6489 31.86 37.9629 31.378 37.5989C30.432 36.8839 29.537 36.0739 28.718 35.1909C26.335 32.6219 24.719 29.6049 23.907 26.2119C24.345 25.8739 24.756 25.5009 25.136 25.0959C25.766 24.4249 26.304 23.6769 26.735 22.8699C27.02 22.3369 26.818 21.6749 26.286 21.3899C25.754 21.1049 25.091 21.3069 24.806 21.8389C24.4638 22.4779 24.0388 23.069 23.542 23.5969C23.103 24.0639 22.611 24.4789 22.08 24.8299C21.707 25.0759 21.522 25.5239 21.611 25.9619C22.444 30.0339 24.295 33.6389 27.114 36.6779C28.0158 37.651 29.0013 38.5431 30.059 39.3439C30.1734 39.431 30.3039 39.4946 30.443 39.531C30.5821 39.5675 30.727 39.576 30.8694 39.5562C31.0118 39.5364 31.1488 39.4887 31.2727 39.4157C31.3965 39.3427 31.5047 39.2459 31.591 39.1309Z" fill="url(#paint0_linear_76_43)"/>
</g>
</g>
</g>
</g>
<defs>
<linearGradient id="paint0_linear_76_43" x1="16.799" y1="31.1169" x2="44.798" y2="31.1169" gradientUnits="userSpaceOnUse">
<stop stop-color="#6366F1"/>
<stop offset="0.5" stop-color="#8B5CF6"/>
<stop offset="1" stop-color="#D946EF"/>
</linearGradient>
<clipPath id="clip0_76_43">
<rect width="28" height="28" fill="white" transform="translate(16.8 17.0499)"/>
</clipPath>
<clipPath id="clip1_76_43">
<rect width="28" height="28" fill="white" transform="translate(16.8 17.0499)"/>
</clipPath>
<clipPath id="clip2_76_43">
<rect width="28" height="28" fill="white" transform="translate(16.8 17.0499)"/>
</clipPath>
</defs>
</svg>
