<svg width="60" height="61" viewBox="0 0 60 61" fill="none" xmlns="http://www.w3.org/2000/svg">
<rect y="0.780029" width="60" height="60.08" rx="8" fill="#F3F6FF"/>
<g clip-path="url(#clip0_76_41)">
<g clip-path="url(#clip1_76_41)">
<g clip-path="url(#clip2_76_41)">
<mask id="mask0_76_41" style="mask-type:luminance" maskUnits="userSpaceOnUse" x="16" y="16" width="28" height="29">
<path d="M16 16.85H44V44.85H16V16.85Z" fill="white"/>
</mask>
<g mask="url(#mask0_76_41)">
<path d="M41.813 38.833V19.584C41.8122 19.4391 41.7543 19.3005 41.6519 19.1981C41.5495 19.0956 41.4108 19.0378 41.266 19.037H38.86C38.7152 19.0378 38.5765 19.0956 38.4741 19.1981C38.3717 19.3005 38.3138 19.4391 38.313 19.584V42.66H42.906C43.51 42.66 44 43.15 44 43.753C44 44.356 43.51 44.847 42.906 44.847H17.096C16.492 44.847 16.002 44.357 16.002 43.753V35.933C16.0036 35.2084 16.2921 34.5139 16.8045 34.0015C17.3169 33.4891 18.0114 33.2006 18.736 33.199H21.142C21.8666 33.2006 22.5611 33.4891 23.0735 34.0015C23.5859 34.5139 23.8744 35.2084 23.876 35.933V38.831C23.876 39.435 23.386 39.925 22.782 39.925C22.178 39.925 21.688 39.435 21.688 38.831V35.933C21.6872 35.7881 21.6293 35.6495 21.5269 35.5471C21.4245 35.4446 21.2858 35.3868 21.141 35.386H18.736C18.5912 35.3868 18.4525 35.4446 18.3501 35.5471C18.2477 35.6495 18.1898 35.7881 18.189 35.933V42.659H26.064V28.334C26.0656 27.6094 26.3541 26.9149 26.8665 26.4025C27.3789 25.8901 28.0734 25.6016 28.798 25.6H31.204C31.9286 25.6016 32.6231 25.8901 33.1355 26.4025C33.6479 26.9149 33.9364 27.6094 33.938 28.334V38.833C33.938 39.437 33.448 39.927 32.844 39.927C32.24 39.927 31.75 39.437 31.75 38.833V28.334C31.7492 28.1891 31.6913 28.0505 31.5889 27.9481C31.4865 27.8456 31.3478 27.7878 31.203 27.787H28.797C28.6522 27.7878 28.5135 27.8456 28.4111 27.9481C28.3087 28.0505 28.2508 28.1891 28.25 28.334V42.661H36.124V19.584C36.1256 18.859 36.4144 18.1642 36.9272 17.6518C37.44 17.1394 38.135 16.851 38.86 16.85H41.266C41.9906 16.8516 42.6851 17.1401 43.1975 17.6525C43.7099 18.1649 43.9984 18.8594 44 19.584V38.833C44 39.437 43.51 39.927 42.906 39.927C42.302 39.927 41.813 39.437 41.813 38.833ZM20.357 26.638H18.728C18.459 26.638 18.187 26.469 18.187 26.146C18.187 25.542 17.697 25.052 17.093 25.052C16.489 25.052 16 25.542 16 26.146C16 27.615 17.145 28.772 18.626 28.823V29.427C18.626 30.031 19.116 30.521 19.72 30.521C20.324 30.521 20.814 30.031 20.814 29.427V28.794C22.319 28.584 23.44 27.347 23.44 25.805V25.709C23.44 23.99 22.057 22.592 20.358 22.592H19.355C18.857 22.592 18.466 22.212 18.466 21.726V21.647C18.466 21.157 18.848 20.788 19.355 20.788H20.303C20.582 20.788 20.87 20.974 20.87 21.286C20.87 21.89 21.36 22.38 21.964 22.38C22.568 22.38 23.058 21.89 23.058 21.286C23.058 19.975 22.09 18.882 20.815 18.647V17.944C20.813 17.34 20.324 16.85 19.72 16.85C19.116 16.85 18.626 17.34 18.626 17.944V18.685C18.085 18.813 17.589 19.083 17.187 19.476C16.8977 19.7582 16.6682 20.0958 16.5122 20.4686C16.3562 20.8414 16.2769 21.2418 16.279 21.646V21.725C16.279 22.551 16.601 23.322 17.185 23.897C17.763 24.465 18.534 24.778 19.355 24.778H20.357C20.842 24.778 21.252 25.204 21.252 25.707V25.803C21.252 26.279 20.867 26.637 20.357 26.637V26.638Z" fill="url(#paint0_linear_76_41)"/>
</g>
</g>
</g>
</g>
<defs>
<linearGradient id="paint0_linear_76_41" x1="16" y1="30.916" x2="44" y2="30.916" gradientUnits="userSpaceOnUse">
<stop stop-color="#6366F1"/>
<stop offset="0.5" stop-color="#8B5CF6"/>
<stop offset="1" stop-color="#D946EF"/>
</linearGradient>
<clipPath id="clip0_76_41">
<rect width="28" height="28" fill="white" transform="translate(16 16.85)"/>
</clipPath>
<clipPath id="clip1_76_41">
<rect width="28" height="28" fill="white" transform="translate(16 16.85)"/>
</clipPath>
<clipPath id="clip2_76_41">
<rect width="28" height="28" fill="white" transform="translate(16 16.85)"/>
</clipPath>
</defs>
</svg>
