<svg width="61" height="61" viewBox="0 0 61 61" fill="none" xmlns="http://www.w3.org/2000/svg">
<rect x="0.800049" y="0.579956" width="60" height="60.08" rx="8" fill="#F3F6FF"/>
<g clip-path="url(#clip0_20005128_14706)">
<g clip-path="url(#clip1_20005128_14706)">
<g clip-path="url(#clip2_20005128_14706)">
<mask id="mask0_20005128_14706" style="mask-type:luminance" maskUnits="userSpaceOnUse" x="16" y="16" width="29" height="29">
<path d="M16.8 16.6499H44.8V44.6499H16.8V16.6499Z" fill="white"/>
</mask>
<g mask="url(#mask0_20005128_14706)">
<path d="M30.745 38.3059C25.714 38.3059 23.372 34.0839 23.275 33.9049C22.988 33.3739 23.185 32.7099 23.717 32.4219C24.249 32.1339 24.912 32.3329 25.199 32.8639C25.201 32.8679 25.673 33.7109 26.611 34.5309C27.816 35.5839 29.207 36.1189 30.745 36.1189C34.487 36.1189 36.273 32.8969 36.291 32.8639C36.579 32.3329 37.2421 32.1349 37.774 32.4219C38.306 32.7089 38.503 33.3729 38.216 33.9039C38.119 34.0839 35.778 38.3049 30.746 38.3049L30.745 38.3059ZM38.044 42.6319C38.561 42.3189 38.726 41.6469 38.413 41.1299C38.1 40.6129 37.427 40.4479 36.911 40.7609C35.0678 41.8759 32.9543 42.4645 30.8 42.4629C27.6686 42.4581 24.6668 41.212 22.4526 38.9976C20.2384 36.7833 18.9925 33.7814 18.988 30.6499C18.9928 27.5186 20.2388 24.517 22.453 22.3028C24.6671 20.0887 27.6688 18.8427 30.8 18.8379C33.9315 18.8424 36.9334 20.0883 39.1478 22.3025C41.3621 24.5166 42.6083 27.5185 42.613 30.6499C42.613 32.9789 41.92 35.2459 40.61 37.2059C40.274 37.7079 40.409 38.3869 40.911 38.7229C41.413 39.0589 42.092 38.9239 42.428 38.4219C43.98 36.1009 44.8 33.4129 44.8 30.6499C44.8 26.9109 43.344 23.3949 40.7 20.7499C38.056 18.1049 34.54 16.6499 30.8 16.6499C27.06 16.6499 23.545 18.1059 20.9 20.7499C18.255 23.3939 16.8 26.9109 16.8 30.6499C16.8 34.3889 18.256 37.9049 20.9 40.5499C23.544 43.1949 27.061 44.6499 30.8 44.6499C33.36 44.6499 35.865 43.9519 38.044 42.6319ZM38.402 28.0249C38.4005 27.3003 38.1119 26.6058 37.5995 26.0934C37.0871 25.581 36.3927 25.2925 35.668 25.2909C34.9434 25.2925 34.249 25.581 33.7366 26.0934C33.2242 26.6058 32.9356 27.3003 32.934 28.0249C32.934 28.6289 33.424 29.1189 34.028 29.1189C34.632 29.1189 35.122 28.6289 35.122 28.0249C35.1228 27.8801 35.1807 27.7414 35.2831 27.639C35.3855 27.5366 35.5242 27.4787 35.669 27.4779C35.8139 27.4787 35.9526 27.5366 36.055 27.639C36.1574 27.7414 36.2153 27.8801 36.216 28.0249C36.216 28.6289 36.706 29.1189 37.31 29.1189C37.914 29.1189 38.404 28.6289 38.404 28.0249H38.402ZM28.722 28.0249C28.7205 27.3003 28.4319 26.6058 27.9195 26.0934C27.4071 25.581 26.7127 25.2925 25.988 25.2909C25.2634 25.2925 24.569 25.581 24.0566 26.0934C23.5442 26.6058 23.2556 27.3003 23.254 28.0249C23.254 28.6289 23.744 29.1189 24.348 29.1189C24.952 29.1189 25.442 28.6289 25.442 28.0249C25.4428 27.8801 25.5007 27.7414 25.6031 27.639C25.7055 27.5366 25.8442 27.4787 25.989 27.4779C26.1339 27.4787 26.2726 27.5366 26.375 27.639C26.4774 27.7414 26.5353 27.8801 26.536 28.0249C26.536 28.6289 27.026 29.1189 27.63 29.1189C28.234 29.1189 28.724 28.6289 28.724 28.0249H28.722Z" fill="url(#paint0_linear_20005128_14706)"/>
</g>
</g>
</g>
</g>
<defs>
<linearGradient id="paint0_linear_20005128_14706" x1="16.8" y1="30.7169" x2="44.8" y2="30.7169" gradientUnits="userSpaceOnUse">
<stop stop-color="#6366F1"/>
<stop offset="0.5" stop-color="#8B5CF6"/>
<stop offset="1" stop-color="#D946EF"/>
</linearGradient>
<clipPath id="clip0_20005128_14706">
<rect width="28" height="28" fill="white" transform="translate(16.8 16.6499)"/>
</clipPath>
<clipPath id="clip1_20005128_14706">
<rect width="28" height="28" fill="white" transform="translate(16.8 16.6499)"/>
</clipPath>
<clipPath id="clip2_20005128_14706">
<rect width="28" height="28" fill="white" transform="translate(16.8 16.6499)"/>
</clipPath>
</defs>
</svg>
