<svg width="16" height="12" viewBox="0 0 16 12" fill="none" xmlns="http://www.w3.org/2000/svg">
<path d="M13.6609 0.265637H1.93906C1.52656 0.265637 1.17708 0.408866 0.890625 0.695325C0.604167 0.981783 0.460938 1.32553 0.460938 1.72657V10.5266C0.460938 10.9276 0.604167 11.2742 0.890625 11.5664C1.17708 11.8586 1.52656 12.0047 1.93906 12.0047H13.6609C14.0734 12.0047 14.4229 11.8586 14.7094 11.5664C14.9958 11.2742 15.1391 10.9276 15.1391 10.5266V1.72657C15.1391 1.32553 14.9958 0.981783 14.7094 0.695325C14.4229 0.408866 14.0734 0.265637 13.6609 0.265637ZM13.6609 1.72657V2.1047L7.8 6.67657L1.93906 2.1047V1.72657H13.6609ZM1.93906 10.5266V3.96095L7.35313 8.17189C7.41042 8.21772 7.47917 8.25496 7.55938 8.28361C7.63958 8.31225 7.71979 8.32657 7.8 8.32657C7.88021 8.32657 7.96042 8.31225 8.04063 8.28361C8.12083 8.25496 8.18958 8.21772 8.24688 8.17189L13.6609 3.96095V10.5266H1.93906Z" fill="#9397AD"/>
</svg>
